<mxfile host="app.diagrams.net" modified="2020-11-13T15:31:24.818Z" agent="5.0 (Windows NT 10.0; Win64; x64) AppleWebKit/537.36 (KHTML, like Gecko) Chrome/86.0.4240.111 Safari/537.36" etag="Ahp2Usg9BREahdmDuy7b" version="13.9.2" type="github">
  <diagram id="oFCAzYt6GvVZQqjSTW4d" name="Page-1">
    <mxGraphModel dx="1422" dy="804" grid="1" gridSize="10" guides="1" tooltips="1" connect="1" arrows="1" fold="1" page="1" pageScale="1" pageWidth="1169" pageHeight="827" math="0" shadow="0">
      <root>
        <mxCell id="0" />
        <mxCell id="1" parent="0" />
        <mxCell id="TYP30cW_tUh-IrfuZz3V-3" value="" style="edgeStyle=orthogonalEdgeStyle;rounded=0;orthogonalLoop=1;jettySize=auto;html=1;" edge="1" parent="1" source="TYP30cW_tUh-IrfuZz3V-1" target="TYP30cW_tUh-IrfuZz3V-2">
          <mxGeometry relative="1" as="geometry" />
        </mxCell>
        <mxCell id="TYP30cW_tUh-IrfuZz3V-1" value="foaf:Document" style="graphMlID=n4;shape=rect;rounded=1;arcsize=30;fillColor=#ffff00;strokeColor=#000000;strokeWidth=1.0" vertex="1" parent="1">
          <mxGeometry x="150" y="150" width="81.96822102864604" height="44" as="geometry" />
        </mxCell>
        <mxCell id="TYP30cW_tUh-IrfuZz3V-5" value="" style="edgeStyle=orthogonalEdgeStyle;rounded=0;orthogonalLoop=1;jettySize=auto;html=1;" edge="1" parent="1" source="TYP30cW_tUh-IrfuZz3V-2" target="TYP30cW_tUh-IrfuZz3V-4">
          <mxGeometry relative="1" as="geometry" />
        </mxCell>
        <mxCell id="TYP30cW_tUh-IrfuZz3V-2" value="bgt:GeoObjectRegistratie" style="graphMlID=n4;shape=rect;rounded=1;arcsize=30;fillColor=#ffff00;strokeColor=#000000;strokeWidth=1.0" vertex="1" parent="1">
          <mxGeometry x="231.97" y="330" width="148.03" height="40" as="geometry" />
        </mxCell>
        <mxCell id="TYP30cW_tUh-IrfuZz3V-4" value="bgt:WegdeelRegistratie" style="graphMlID=n4;shape=rect;rounded=1;arcsize=30;fillColor=#ffff00;strokeColor=#000000;strokeWidth=1.0" vertex="1" parent="1">
          <mxGeometry x="220" y="450" width="148.03" height="40" as="geometry" />
        </mxCell>
        <mxCell id="TYP30cW_tUh-IrfuZz3V-6" value="nen3610:Identificatie" style="graphMlID=n4;shape=rect;rounded=1;arcsize=30;fillColor=#ffff00;strokeColor=#000000;strokeWidth=1.0" vertex="1" parent="1">
          <mxGeometry x="450" y="194" width="148.03" height="40" as="geometry" />
        </mxCell>
        <mxCell id="TYP30cW_tUh-IrfuZz3V-8" value="" style="graphMlID=e0;rounded=0;endArrow=block;strokeColor=#000080;strokeWidth=1.0;startArrow=oval;startFill=1;endFill=1;entryX=0;entryY=0.5;entryDx=0;entryDy=0;exitX=1;exitY=0.5;exitDx=0;exitDy=0;" edge="1" parent="1" source="TYP30cW_tUh-IrfuZz3V-2" target="TYP30cW_tUh-IrfuZz3V-13">
          <mxGeometry relative="1" as="geometry">
            <mxPoint x="400" y="259.58183758898736" as="sourcePoint" />
            <mxPoint x="551" y="259.5" as="targetPoint" />
          </mxGeometry>
        </mxCell>
        <mxCell id="TYP30cW_tUh-IrfuZz3V-9" value="&lt;span style=&quot;color: rgb(0 , 0 , 128) ; font-family: &amp;#34;dialog&amp;#34; ; font-size: 16px ; background-color: rgb(248 , 249 , 250)&quot;&gt;foaf:PrimaryTopic&lt;/span&gt;" style="text;html=1;align=center;verticalAlign=middle;resizable=0;points=[];labelBackgroundColor=#ffffff;" vertex="1" connectable="0" parent="TYP30cW_tUh-IrfuZz3V-8">
          <mxGeometry x="-0.0174" y="2" relative="1" as="geometry">
            <mxPoint as="offset" />
          </mxGeometry>
        </mxCell>
        <mxCell id="TYP30cW_tUh-IrfuZz3V-12" value="" style="edgeStyle=orthogonalEdgeStyle;rounded=0;orthogonalLoop=1;jettySize=auto;html=1;" edge="1" parent="1" source="TYP30cW_tUh-IrfuZz3V-10" target="TYP30cW_tUh-IrfuZz3V-11">
          <mxGeometry relative="1" as="geometry" />
        </mxCell>
        <mxCell id="TYP30cW_tUh-IrfuZz3V-10" value="GeoSparql:SpatialObject" style="graphMlID=n4;shape=rect;rounded=1;arcsize=30;fillColor=#ffff00;strokeColor=#000000;strokeWidth=1.0" vertex="1" parent="1">
          <mxGeometry x="740" y="30" width="140" height="44" as="geometry" />
        </mxCell>
        <mxCell id="TYP30cW_tUh-IrfuZz3V-14" value="" style="edgeStyle=orthogonalEdgeStyle;rounded=0;orthogonalLoop=1;jettySize=auto;html=1;" edge="1" parent="1" source="TYP30cW_tUh-IrfuZz3V-11" target="TYP30cW_tUh-IrfuZz3V-13">
          <mxGeometry relative="1" as="geometry" />
        </mxCell>
        <mxCell id="TYP30cW_tUh-IrfuZz3V-11" value="GeoSparql:Feature" style="graphMlID=n4;shape=rect;rounded=1;arcsize=30;fillColor=#ffff00;strokeColor=#000000;strokeWidth=1.0" vertex="1" parent="1">
          <mxGeometry x="740" y="154" width="140" height="44" as="geometry" />
        </mxCell>
        <mxCell id="TYP30cW_tUh-IrfuZz3V-16" value="" style="edgeStyle=orthogonalEdgeStyle;rounded=0;orthogonalLoop=1;jettySize=auto;html=1;" edge="1" parent="1" source="TYP30cW_tUh-IrfuZz3V-13" target="TYP30cW_tUh-IrfuZz3V-15">
          <mxGeometry relative="1" as="geometry" />
        </mxCell>
        <mxCell id="TYP30cW_tUh-IrfuZz3V-18" value="" style="edgeStyle=orthogonalEdgeStyle;rounded=0;orthogonalLoop=1;jettySize=auto;html=1;" edge="1" parent="1" source="TYP30cW_tUh-IrfuZz3V-13" target="TYP30cW_tUh-IrfuZz3V-17">
          <mxGeometry relative="1" as="geometry" />
        </mxCell>
        <mxCell id="TYP30cW_tUh-IrfuZz3V-13" value="nen3610:GeoObject" style="graphMlID=n4;shape=rect;rounded=1;arcsize=30;fillColor=#ffff00;strokeColor=#000000;strokeWidth=1.0" vertex="1" parent="1">
          <mxGeometry x="740" y="278" width="140" height="44" as="geometry" />
        </mxCell>
        <mxCell id="TYP30cW_tUh-IrfuZz3V-20" value="" style="edgeStyle=orthogonalEdgeStyle;rounded=0;orthogonalLoop=1;jettySize=auto;html=1;" edge="1" parent="1" source="TYP30cW_tUh-IrfuZz3V-15" target="TYP30cW_tUh-IrfuZz3V-19">
          <mxGeometry relative="1" as="geometry" />
        </mxCell>
        <mxCell id="TYP30cW_tUh-IrfuZz3V-15" value="bgt:GeoObject" style="graphMlID=n4;shape=rect;rounded=1;arcsize=30;fillColor=#ffff00;strokeColor=#000000;strokeWidth=1.0" vertex="1" parent="1">
          <mxGeometry x="740" y="402" width="140" height="44" as="geometry" />
        </mxCell>
        <mxCell id="TYP30cW_tUh-IrfuZz3V-21" style="edgeStyle=orthogonalEdgeStyle;rounded=0;orthogonalLoop=1;jettySize=auto;html=1;entryX=0.5;entryY=0;entryDx=0;entryDy=0;" edge="1" parent="1" source="TYP30cW_tUh-IrfuZz3V-17" target="TYP30cW_tUh-IrfuZz3V-19">
          <mxGeometry relative="1" as="geometry" />
        </mxCell>
        <mxCell id="TYP30cW_tUh-IrfuZz3V-17" value="nen3610:Weg" style="graphMlID=n4;shape=rect;rounded=1;arcsize=30;fillColor=#ffff00;strokeColor=#000000;strokeWidth=1.0" vertex="1" parent="1">
          <mxGeometry x="960" y="278" width="140" height="44" as="geometry" />
        </mxCell>
        <mxCell id="TYP30cW_tUh-IrfuZz3V-23" value="" style="edgeStyle=orthogonalEdgeStyle;rounded=0;orthogonalLoop=1;jettySize=auto;html=1;" edge="1" parent="1" source="TYP30cW_tUh-IrfuZz3V-19" target="TYP30cW_tUh-IrfuZz3V-22">
          <mxGeometry relative="1" as="geometry">
            <Array as="points">
              <mxPoint x="930" y="652" />
            </Array>
          </mxGeometry>
        </mxCell>
        <mxCell id="TYP30cW_tUh-IrfuZz3V-25" style="edgeStyle=orthogonalEdgeStyle;rounded=0;orthogonalLoop=1;jettySize=auto;html=1;entryX=0;entryY=0.5;entryDx=0;entryDy=0;" edge="1" parent="1" source="TYP30cW_tUh-IrfuZz3V-19" target="TYP30cW_tUh-IrfuZz3V-24">
          <mxGeometry relative="1" as="geometry" />
        </mxCell>
        <mxCell id="TYP30cW_tUh-IrfuZz3V-27" style="edgeStyle=orthogonalEdgeStyle;rounded=0;orthogonalLoop=1;jettySize=auto;html=1;entryX=0;entryY=0.5;entryDx=0;entryDy=0;" edge="1" parent="1" source="TYP30cW_tUh-IrfuZz3V-19" target="TYP30cW_tUh-IrfuZz3V-26">
          <mxGeometry relative="1" as="geometry" />
        </mxCell>
        <mxCell id="TYP30cW_tUh-IrfuZz3V-19" value="bgt:Wegdeel" style="graphMlID=n4;shape=rect;rounded=1;arcsize=30;fillColor=#ffff00;strokeColor=#000000;strokeWidth=1.0" vertex="1" parent="1">
          <mxGeometry x="860" y="530" width="140" height="44" as="geometry" />
        </mxCell>
        <mxCell id="TYP30cW_tUh-IrfuZz3V-22" value="bgt:Fietspad" style="graphMlID=n4;shape=rect;rounded=1;arcsize=30;fillColor=#ffff00;strokeColor=#000000;strokeWidth=1.0" vertex="1" parent="1">
          <mxGeometry x="970" y="630" width="140" height="44" as="geometry" />
        </mxCell>
        <mxCell id="TYP30cW_tUh-IrfuZz3V-24" value="bgt:RijbaanAutoweg" style="graphMlID=n4;shape=rect;rounded=1;arcsize=30;fillColor=#ffff00;strokeColor=#000000;strokeWidth=1.0" vertex="1" parent="1">
          <mxGeometry x="970" y="690" width="140" height="44" as="geometry" />
        </mxCell>
        <mxCell id="TYP30cW_tUh-IrfuZz3V-26" value="bgt:.." style="graphMlID=n4;shape=rect;rounded=1;arcsize=30;fillColor=#ffff00;strokeColor=#000000;strokeWidth=1.0" vertex="1" parent="1">
          <mxGeometry x="970" y="750" width="140" height="44" as="geometry" />
        </mxCell>
      </root>
    </mxGraphModel>
  </diagram>
</mxfile>
